<svg t="1616055674528" class="icon" viewBox="0 0 1024 1024" version="1.1" xmlns="http://www.w3.org/2000/svg"
    p-id="17764" width="200" height="200">
    <path
        d="M512 0C229.248 0 0 229.248 0 512s229.248 512 512 512 512-229.248 512-512S794.752 0 512 0z m0 896c-212.032 0-384-171.968-384-384S299.968 128 512 128s384 171.968 384 384-171.968 384-384 384z m192-448h-128v-128a64 64 0 1 0-128 0v192a64 64 0 0 0 64 64h192c35.392 0 64-28.608 64-64s-28.608-64-64-64z"
        p-id="17765"></path>
</svg>