<svg t="1616055315173" class="icon" viewBox="0 0 1024 1024" version="1.1"
    xmlns="http://www.w3.org/2000/svg" p-id="3237" width="200" height="200">
    <path d="M204.8 512h51.2a204.8 204.8 0 0 1 204.8 204.8v102.4a204.8 204.8 0 0 1-204.8 204.8H204.8a204.8 204.8 0 0 1-204.8-204.8v-102.4a204.8 204.8 0 0 1 204.8-204.8z m0 102.4a102.4 102.4 0 0 0-102.4 102.4v102.4a102.4 102.4 0 0 0 102.4 102.4h51.2a102.4 102.4 0 0 0 102.4-102.4v-102.4a102.4 102.4 0 0 0-102.4-102.4H204.8zM179.2 0A179.2 179.2 0 0 1 358.4 179.2v51.2a179.2 179.2 0 1 1-358.4 0v-51.2A179.2 179.2 0 0 1 179.2 0z m0 102.4A76.8 76.8 0 0 0 102.4 179.2v51.2a76.8 76.8 0 1 0 153.6 0v-51.2A76.8 76.8 0 0 0 179.2 102.4zM768 460.8h51.2a204.8 204.8 0 0 1 204.8 204.8v153.6a204.8 204.8 0 0 1-204.8 204.8h-51.2a204.8 204.8 0 0 1-204.8-204.8v-153.6a204.8 204.8 0 0 1 204.8-204.8z m0 102.4a102.4 102.4 0 0 0-102.4 102.4v153.6a102.4 102.4 0 0 0 102.4 102.4h51.2a102.4 102.4 0 0 0 102.4-102.4v-153.6a102.4 102.4 0 0 0-102.4-102.4h-51.2zM640 0h204.8a179.2 179.2 0 1 1 0 358.4h-204.8a179.2 179.2 0 1 1 0-358.4z m0 102.4a76.8 76.8 0 0 0 0 153.6h204.8a76.8 76.8 0 0 0 0-153.6h-204.8z" p-id="3238"></path>
</svg>